<mxfile host="app.diagrams.net" modified="2021-04-07T03:21:16.807Z" agent="5.0 (Windows NT 10.0; Win64; x64) AppleWebKit/537.36 (KHTML, like Gecko) Chrome/89.0.4389.90 Safari/537.36" etag="ztbYpKWK6Wzt1wgN1VML" version="14.5.8" type="github">
  <diagram id="kQW0fDB1bhmDlFop-rW_" name="Page-1">
    <mxGraphModel dx="981" dy="526" grid="1" gridSize="10" guides="1" tooltips="1" connect="1" arrows="1" fold="1" page="1" pageScale="1" pageWidth="827" pageHeight="1169" math="0" shadow="0">
      <root>
        <mxCell id="0" />
        <mxCell id="1" parent="0" />
        <mxCell id="-R-Q9hajjxQJNr9uCEyi-9" value="企业信息" style="shape=umlLifeline;perimeter=lifelinePerimeter;whiteSpace=wrap;html=1;container=1;collapsible=0;recursiveResize=0;outlineConnect=0;" parent="1" vertex="1">
          <mxGeometry x="150" y="35" width="100" height="600" as="geometry" />
        </mxCell>
        <mxCell id="-R-Q9hajjxQJNr9uCEyi-14" value="" style="html=1;points=[];perimeter=orthogonalPerimeter;" parent="-R-Q9hajjxQJNr9uCEyi-9" vertex="1">
          <mxGeometry x="47.5" y="60" width="5" height="80" as="geometry" />
        </mxCell>
        <mxCell id="-R-Q9hajjxQJNr9uCEyi-17" value="请求测点接口" style="html=1;verticalAlign=bottom;endArrow=block;exitX=0.5;exitY=0.25;exitDx=0;exitDy=0;exitPerimeter=0;" parent="-R-Q9hajjxQJNr9uCEyi-9" edge="1" source="-R-Q9hajjxQJNr9uCEyi-14">
          <mxGeometry width="80" relative="1" as="geometry">
            <mxPoint x="60" y="80" as="sourcePoint" />
            <mxPoint x="540" y="80" as="targetPoint" />
          </mxGeometry>
        </mxCell>
        <mxCell id="-R-Q9hajjxQJNr9uCEyi-11" value="" style="shape=umlLifeline;participant=umlActor;perimeter=lifelinePerimeter;whiteSpace=wrap;html=1;container=1;collapsible=0;recursiveResize=0;verticalAlign=top;spacingTop=36;outlineConnect=0;" parent="1" vertex="1">
          <mxGeometry x="80" y="30" width="20" height="610" as="geometry" />
        </mxCell>
        <mxCell id="-R-Q9hajjxQJNr9uCEyi-20" value="" style="html=1;points=[];perimeter=orthogonalPerimeter;" parent="-R-Q9hajjxQJNr9uCEyi-11" vertex="1">
          <mxGeometry x="5" y="70" width="10" height="270" as="geometry" />
        </mxCell>
        <mxCell id="WHdW7t_oDWH6vatI9NrV-6" value="查看数据" style="html=1;verticalAlign=bottom;endArrow=block;" edge="1" parent="-R-Q9hajjxQJNr9uCEyi-11" target="-R-Q9hajjxQJNr9uCEyi-13">
          <mxGeometry width="80" relative="1" as="geometry">
            <mxPoint x="20" y="180" as="sourcePoint" />
            <mxPoint x="250" y="180" as="targetPoint" />
          </mxGeometry>
        </mxCell>
        <mxCell id="WHdW7t_oDWH6vatI9NrV-14" value="查看" style="html=1;verticalAlign=bottom;endArrow=block;" edge="1" parent="-R-Q9hajjxQJNr9uCEyi-11" target="WHdW7t_oDWH6vatI9NrV-12">
          <mxGeometry width="80" relative="1" as="geometry">
            <mxPoint x="20" y="260" as="sourcePoint" />
            <mxPoint x="90" y="260" as="targetPoint" />
          </mxGeometry>
        </mxCell>
        <mxCell id="-R-Q9hajjxQJNr9uCEyi-12" value="平台接口" style="shape=umlLifeline;perimeter=lifelinePerimeter;whiteSpace=wrap;html=1;container=1;collapsible=0;recursiveResize=0;outlineConnect=0;" parent="1" vertex="1">
          <mxGeometry x="650" y="35" width="100" height="600" as="geometry" />
        </mxCell>
        <mxCell id="-R-Q9hajjxQJNr9uCEyi-19" value="" style="html=1;points=[];perimeter=orthogonalPerimeter;" parent="-R-Q9hajjxQJNr9uCEyi-12" vertex="1">
          <mxGeometry x="45" y="70" width="10" height="260" as="geometry" />
        </mxCell>
        <mxCell id="-R-Q9hajjxQJNr9uCEyi-13" value="监测点数据" style="shape=umlLifeline;perimeter=lifelinePerimeter;whiteSpace=wrap;html=1;container=1;collapsible=0;recursiveResize=0;outlineConnect=0;" parent="1" vertex="1">
          <mxGeometry x="314" y="35" width="100" height="600" as="geometry" />
        </mxCell>
        <mxCell id="WHdW7t_oDWH6vatI9NrV-4" value="" style="html=1;points=[];perimeter=orthogonalPerimeter;" vertex="1" parent="-R-Q9hajjxQJNr9uCEyi-13">
          <mxGeometry x="45" y="145" width="10" height="80" as="geometry" />
        </mxCell>
        <mxCell id="WHdW7t_oDWH6vatI9NrV-7" value="请求数据" style="html=1;verticalAlign=bottom;endArrow=block;" edge="1" parent="-R-Q9hajjxQJNr9uCEyi-13">
          <mxGeometry width="80" relative="1" as="geometry">
            <mxPoint x="60" y="175" as="sourcePoint" />
            <mxPoint x="376" y="175" as="targetPoint" />
          </mxGeometry>
        </mxCell>
        <mxCell id="-R-Q9hajjxQJNr9uCEyi-15" value="增删改查" style="html=1;verticalAlign=bottom;endArrow=block;entryX=0;entryY=0.125;entryDx=0;entryDy=0;entryPerimeter=0;" parent="1" source="-R-Q9hajjxQJNr9uCEyi-20" target="-R-Q9hajjxQJNr9uCEyi-14" edge="1">
          <mxGeometry width="80" relative="1" as="geometry">
            <mxPoint x="110" y="110" as="sourcePoint" />
            <mxPoint x="180" y="130" as="targetPoint" />
          </mxGeometry>
        </mxCell>
        <mxCell id="WHdW7t_oDWH6vatI9NrV-1" value="return" style="html=1;verticalAlign=bottom;endArrow=open;dashed=1;endSize=8;entryX=0.5;entryY=0.813;entryDx=0;entryDy=0;entryPerimeter=0;" edge="1" parent="1" target="-R-Q9hajjxQJNr9uCEyi-14">
          <mxGeometry relative="1" as="geometry">
            <mxPoint x="690" y="160" as="sourcePoint" />
            <mxPoint x="210" y="160" as="targetPoint" />
          </mxGeometry>
        </mxCell>
        <mxCell id="WHdW7t_oDWH6vatI9NrV-2" value="展示结果" style="html=1;verticalAlign=bottom;endArrow=open;dashed=1;endSize=8;exitX=-0.39;exitY=0.919;exitDx=0;exitDy=0;exitPerimeter=0;" edge="1" parent="1" source="-R-Q9hajjxQJNr9uCEyi-14" target="-R-Q9hajjxQJNr9uCEyi-11">
          <mxGeometry relative="1" as="geometry">
            <mxPoint x="160" y="160" as="sourcePoint" />
            <mxPoint x="100" y="160" as="targetPoint" />
          </mxGeometry>
        </mxCell>
        <mxCell id="WHdW7t_oDWH6vatI9NrV-8" value="return" style="html=1;verticalAlign=bottom;endArrow=open;dashed=1;endSize=8;" edge="1" parent="1">
          <mxGeometry relative="1" as="geometry">
            <mxPoint x="690" y="240" as="sourcePoint" />
            <mxPoint x="370" y="240" as="targetPoint" />
          </mxGeometry>
        </mxCell>
        <mxCell id="WHdW7t_oDWH6vatI9NrV-10" value="展示结果" style="html=1;verticalAlign=bottom;endArrow=open;dashed=1;endSize=8;exitX=-0.207;exitY=0.744;exitDx=0;exitDy=0;exitPerimeter=0;" edge="1" parent="1" source="WHdW7t_oDWH6vatI9NrV-4">
          <mxGeometry relative="1" as="geometry">
            <mxPoint x="350" y="240" as="sourcePoint" />
            <mxPoint x="100" y="240" as="targetPoint" />
          </mxGeometry>
        </mxCell>
        <mxCell id="WHdW7t_oDWH6vatI9NrV-11" value="异常统计" style="shape=umlLifeline;perimeter=lifelinePerimeter;whiteSpace=wrap;html=1;container=1;collapsible=0;recursiveResize=0;outlineConnect=0;" vertex="1" parent="1">
          <mxGeometry x="480" y="35" width="100" height="600" as="geometry" />
        </mxCell>
        <mxCell id="WHdW7t_oDWH6vatI9NrV-12" value="" style="html=1;points=[];perimeter=orthogonalPerimeter;" vertex="1" parent="WHdW7t_oDWH6vatI9NrV-11">
          <mxGeometry x="45" y="235" width="10" height="80" as="geometry" />
        </mxCell>
        <mxCell id="WHdW7t_oDWH6vatI9NrV-15" value="查询告警数据" style="html=1;verticalAlign=bottom;endArrow=block;" edge="1" parent="WHdW7t_oDWH6vatI9NrV-11">
          <mxGeometry width="80" relative="1" as="geometry">
            <mxPoint x="56" y="255" as="sourcePoint" />
            <mxPoint x="210" y="255" as="targetPoint" />
          </mxGeometry>
        </mxCell>
        <mxCell id="WHdW7t_oDWH6vatI9NrV-16" value="return" style="html=1;verticalAlign=bottom;endArrow=open;dashed=1;endSize=8;" edge="1" parent="1">
          <mxGeometry relative="1" as="geometry">
            <mxPoint x="690" y="320" as="sourcePoint" />
            <mxPoint x="540" y="320" as="targetPoint" />
          </mxGeometry>
        </mxCell>
        <mxCell id="WHdW7t_oDWH6vatI9NrV-17" value="展示结果" style="html=1;verticalAlign=bottom;endArrow=open;dashed=1;endSize=8;" edge="1" parent="1" source="WHdW7t_oDWH6vatI9NrV-11">
          <mxGeometry relative="1" as="geometry">
            <mxPoint x="459.75" y="334.71" as="sourcePoint" />
            <mxPoint x="100" y="335" as="targetPoint" />
          </mxGeometry>
        </mxCell>
      </root>
    </mxGraphModel>
  </diagram>
</mxfile>
